<svg id="Layer_1" data-name="Layer 1" xmlns="http://www.w3.org/2000/svg" viewBox="0 0 51.23 55.82"><defs><style>.cls-1{fill:#ed1f7a;}.cls-2{fill:#4b5eaa;}.cls-3{fill:#fcb017;}</style></defs><title>CodiLogo-notype</title><path class="cls-1" d="M16,30.37H4.6a.95.95,0,0,1,0-1.89H16a.95.95,0,0,1,0,1.89Z" transform="translate(0.02 -0.49)"/><path class="cls-2" d="M32.08,15.81a1.13,1.13,0,0,1-1-1V4.44a1,1,0,0,1,2.09,0V15A1.13,1.13,0,0,1,32.08,15.81Z" transform="translate(0.02 -0.49)"/><path class="cls-2" d="M32.08,52.76a1.11,1.11,0,0,1-1-1V44.11a1,1,0,0,1,2.09,0V51.8A1.18,1.18,0,0,1,32.08,52.76Z" transform="translate(0.02 -0.49)"/><path class="cls-1" d="M13.63,47.07a1.91,1.91,0,0,1-.79-.24.86.86,0,0,1-.07-1.22l.07-.08,6.94-6.28a1.12,1.12,0,0,1,1.44,0,.87.87,0,0,1,.08,1.23l-.08.07-6.77,6.16A1.11,1.11,0,0,1,13.63,47.07Z" transform="translate(0.02 -0.49)"/><path class="cls-1" d="M43.46,20.07a1.82,1.82,0,0,1-.78-.24.86.86,0,0,1-.09-1.21l.09-.09,6.79-6.16a1.11,1.11,0,0,1,1.45,0A.87.87,0,0,1,51,13.59a.6.6,0,0,1-.08.08l-6.8,6.16C44,20.07,43.73,20.07,43.46,20.07Z" transform="translate(0.02 -0.49)"/><path class="cls-1" d="M49.87,46.6a2.07,2.07,0,0,1-.79-.24l-6.53-5.92a.86.86,0,0,1-.08-1.22l.08-.08a1.11,1.11,0,0,1,1.43,0l6.55,5.92a.87.87,0,0,1,.08,1.22l-.08.08C50.4,46.6,50.13,46.6,49.87,46.6Z" transform="translate(0.02 -0.49)"/><path class="cls-1" d="M14.45,14.51a2.26,2.26,0,0,1-.79-.24l-1.83-1.65a1,1,0,0,1,0-1.43,1.13,1.13,0,0,1,1.45,0l1.83,1.66a.87.87,0,0,1,.08,1.22.6.6,0,0,1-.08.08A.79.79,0,0,1,14.45,14.51Z" transform="translate(0.02 -0.49)"/><path class="cls-3" d="M20.7,20.07a1.86,1.86,0,0,1-.79-.24l-3.4-3.08a.87.87,0,0,1-.08-1.22l.08-.08a1.12,1.12,0,0,1,1.44,0l3.4,3.08a.86.86,0,0,1,.09,1.21l-.09.09C21.22,20.07,21,20.07,20.7,20.07Z" transform="translate(0.02 -0.49)"/><path class="cls-1" d="M6.31,40.09a1,1,0,0,1-.93-.59.83.83,0,0,1,.33-1.12.68.68,0,0,1,.2-.07l10.86-4a1,1,0,0,1,1.28.42l0,.06a.82.82,0,0,1-.32,1.1.84.84,0,0,1-.2.08L6.67,40A.53.53,0,0,1,6.31,40.09Z" transform="translate(0.02 -0.49)"/><path class="cls-1" d="M25.81,17a1,1,0,0,1-.93-.61l-1.7-3.77a.83.83,0,0,1,.33-1.12.73.73,0,0,1,.19-.07,1,1,0,0,1,1.29.42l0,.05,1.66,3.79a.81.81,0,0,1-.29,1.1.63.63,0,0,1-.23.08A.53.53,0,0,1,25.81,17Z" transform="translate(0.02 -0.49)"/><path class="cls-3" d="M22.66,9.89a1,1,0,0,1-.92-.6l-1.3-2.72a.79.79,0,0,1,.29-1.09A.92.92,0,0,1,21,5.39a1,1,0,0,1,1.28.47l1.33,2.72a.82.82,0,0,1-.31,1.11l-.21.08A.51.51,0,0,1,22.66,9.89Z" transform="translate(0.02 -0.49)"/><path class="cls-2" d="M41.63,51.34a1,1,0,0,1-.92-.59l-3.4-7.47a.82.82,0,0,1,.31-1.11l.18-.07a1,1,0,0,1,1.29.42s0,0,0,.06L42.51,50a.81.81,0,0,1-.32,1.1.68.68,0,0,1-.2.07A.53.53,0,0,1,41.63,51.34Z" transform="translate(0.02 -0.49)"/><path class="cls-1" d="M38.23,17a.54.54,0,0,1-.4-.13.83.83,0,0,1-.58-1l.06-.16,4.32-9.48a1,1,0,0,1,1.31-.47c.52.24.79.72.52,1.18l-4.31,9.47A1,1,0,0,1,38.23,17Z" transform="translate(0.02 -0.49)"/><path class="cls-3" d="M22.78,50.54a.6.6,0,0,1-.39-.11c-.52-.25-.79-.72-.52-1.19l3-6.67a1,1,0,0,1,1.3-.48.83.83,0,0,1,.53,1.18l-3,6.67A1,1,0,0,1,22.78,50.54Z" transform="translate(0.02 -0.49)"/><path class="cls-1" d="M17.16,24.81a.49.49,0,0,1-.39-.12l-10.6-4a.83.83,0,0,1-.59-1,1.22,1.22,0,0,1,.07-.17A1,1,0,0,1,7,19l10.6,4a.84.84,0,0,1,.58,1l-.06.15A1,1,0,0,1,17.16,24.81Z" transform="translate(0.02 -0.49)"/><path class="cls-2" d="M8.4,34.64a1.12,1.12,0,0,1-1.05-.71.93.93,0,0,1,.73-1.1h.06L16,31.39a1,1,0,0,1,1.18.71,1,1,0,0,1-.75,1.11h0L8.53,34.64Z" transform="translate(0.02 -0.49)"/><path class="cls-3" d="M1.11,35.94A1.13,1.13,0,0,1,0,35.23a1,1,0,0,1,.75-1.11h0l3.54-.59a1,1,0,0,1,1.23.75h0a1,1,0,0,1-.75,1.11h0L1.24,36Z" transform="translate(0.02 -0.49)"/><path class="cls-1" d="M35.87,48.13a1.11,1.11,0,0,1-1-.71L34,44a1,1,0,0,1,.75-1.11h0a1,1,0,0,1,1.18.71L36.79,47a.93.93,0,0,1-.73,1.1h-.19Z" transform="translate(0.02 -0.49)"/><path class="cls-3" d="M37.7,56.31a1.1,1.1,0,0,1-1-.72l-1.18-5.2a.93.93,0,0,1,.7-1.1h.09a1,1,0,0,1,1.16.71l1.18,5.2a.92.92,0,0,1-.7,1.1l-.08,0Z" transform="translate(0.02 -0.49)"/><path class="cls-3" d="M28.91,16.16a1.12,1.12,0,0,1-1.05-.71l-.65-3a.93.93,0,0,1,.75-1.1h0a1,1,0,0,1,1.17.71l.66,3a.93.93,0,0,1-.73,1.1h-.19Z" transform="translate(0.02 -0.49)"/><path class="cls-1" d="M27.51,9.89a1.1,1.1,0,0,1-1.06-.71L24.88,1.62A1,1,0,0,1,25.63.51h0a1,1,0,0,1,1.18.71l1.7,7.58a.93.93,0,0,1-.73,1.1h-.06Z" transform="translate(0.02 -0.49)"/><path class="cls-3" d="M41,18.3a.86.86,0,0,1-.52-.13.77.77,0,0,1-.44-1,.75.75,0,0,1,.18-.28l2.75-3.67a1,1,0,0,1,1.35-.3l.08.06A.8.8,0,0,1,44.8,14a.72.72,0,0,1-.16.25l-2.75,3.67A1.55,1.55,0,0,1,41,18.3Z" transform="translate(0.02 -0.49)"/><path class="cls-2" d="M45.82,11.78a.82.82,0,0,1-.53-.12.8.8,0,0,1-.43-1.05.7.7,0,0,1,.17-.25l3.4-4.62a1,1,0,0,1,1.31-.35A.8.8,0,0,1,50,6.69L46.59,11.3A.78.78,0,0,1,45.82,11.78Z" transform="translate(0.02 -0.49)"/><path class="cls-3" d="M15.57,52.76a.88.88,0,0,1-.53-.11.8.8,0,0,1-.44-1,.83.83,0,0,1,.19-.27l3-4.05A1,1,0,0,1,19.18,47a.1.1,0,0,1,.05,0,.79.79,0,0,1,.45,1,.92.92,0,0,1-.19.28l-3,4A1.51,1.51,0,0,1,15.57,52.76Z" transform="translate(0.02 -0.49)"/><path class="cls-2" d="M20.69,45.89a.85.85,0,0,1-.52-.12.79.79,0,0,1-.44-1,.71.71,0,0,1,.18-.27l2.48-3.34a1,1,0,0,1,1.39-.29l.06,0a.79.79,0,0,1,.43,1,.8.8,0,0,1-.18.27l-2.48,3.33A2.94,2.94,0,0,1,20.69,45.89Z" transform="translate(0.02 -0.49)"/><path class="cls-2" d="M18.6,22.32a.79.79,0,0,1-.52-.12l-2.63-1.68A.81.81,0,0,1,15,19.47a.85.85,0,0,1,.17-.25,1,1,0,0,1,1.35-.31l.13.1,2.62,1.65a.81.81,0,0,1,.43,1.05.74.74,0,0,1-.17.25A1.27,1.27,0,0,1,18.6,22.32Z" transform="translate(0.02 -0.49)"/><path class="cls-3" d="M13,18.89a1,1,0,0,1-.53-.12l-8-4.85A.81.81,0,0,1,4,12.87a.85.85,0,0,1,.17-.25,1.28,1.28,0,0,1,1.44-.25l8,4.81a.81.81,0,0,1,.44,1.05,1.06,1.06,0,0,1-.17.26A1.28,1.28,0,0,1,13,18.89Z" transform="translate(0.02 -0.49)"/><path class="cls-2" d="M8.14,45a1.24,1.24,0,0,1-.91-.36,1,1,0,0,1,.25-1.31l5.11-3.08a1.27,1.27,0,0,1,1.43.25,1,1,0,0,1-.26,1.3l-5.1,3C8.53,44.82,8.27,45,8.14,45Z" transform="translate(0.02 -0.49)"/><path class="cls-3" d="M16.51,39.73a1.25,1.25,0,0,1-.94-.31,1,1,0,0,1,.26-1.3l2.09-1.3a1.28,1.28,0,0,1,1.45.23,1,1,0,0,1-.25,1.26l-1.95,1.3A1.26,1.26,0,0,1,16.51,39.73Z" transform="translate(0.02 -0.49)"/><path class="cls-2" d="M23.06,18.3a1.26,1.26,0,0,1-.92-.36L13.9,6.82a1,1,0,0,1,.27-1.3,1.1,1.1,0,0,1,1.55.22v0L24,16.87a1,1,0,0,1-.25,1.3A1.39,1.39,0,0,1,23.06,18.3Z" transform="translate(0.02 -0.49)"/><path class="cls-2" d="M47.81,51.8a1.23,1.23,0,0,1-.93-.35l-3.3-4.38a1,1,0,0,1,.27-1.3,1.26,1.26,0,0,1,1.43.23l3.27,4.39a1,1,0,0,1-.25,1.26C48.16,51.8,48,51.8,47.81,51.8Z" transform="translate(0.02 -0.49)"/><path class="cls-3" d="M42.41,44.59a1.27,1.27,0,0,1-.92-.36l-1.47-2a1,1,0,0,1,.27-1.31,1.28,1.28,0,0,1,1.44.24l1.43,2a1,1,0,0,1-.26,1.3C42.8,44.47,42.67,44.59,42.41,44.59Z" transform="translate(0.02 -0.49)"/><path class="cls-1" d="M26.68,54.29h-.26a.93.93,0,0,1-.8-1.07v0l2.17-9.55a1,1,0,0,1,1.11-.71A.93.93,0,0,1,29.69,44V44l-2.1,9.6A.83.83,0,0,1,26.68,54.29Z" transform="translate(0.02 -0.49)"/><path class="cls-3" d="M35.22,16.16H35a.94.94,0,0,1-.79-1.07v0L36.79,3.13A1,1,0,0,1,38,2.42a.93.93,0,0,1,.78,1.06v0L36.13,15.45A1.1,1.1,0,0,1,35.22,16.16Z" transform="translate(0.02 -0.49)"/><path class="cls-3" d="M16.24,27.53H16l-5.56-.94a.94.94,0,0,1-.79-1.06.11.11,0,0,0,0-.05,1,1,0,0,1,1.18-.71l5.63.94a.93.93,0,0,1,.79,1s0,.05,0,.07A1,1,0,0,1,16.24,27.53Z" transform="translate(0.02 -0.49)"/><path class="cls-2" d="M7,25.88H6.67L1.34,25a.94.94,0,0,1-.8-1s0-.05,0-.08a1,1,0,0,1,1.16-.7l5.37,1a.93.93,0,0,1,.8,1,.13.13,0,0,1,0,.06C7.88,25.63,7.48,25.88,7,25.88Z" transform="translate(0.02 -0.49)"/></svg>