<?xml version="1.0" encoding="UTF-8"?> <svg xmlns="http://www.w3.org/2000/svg" width="124" height="72" viewBox="0 0 124 72" fill="none"><path d="M78.9331 31.9217C78.9331 32.5262 78.4797 32.9797 77.8752 32.9797C76.8172 32.9797 76.0615 31.9217 73.6432 31.9217C70.6205 31.9217 68.6556 34.1888 68.6556 37.2116C68.6556 40.0832 70.6205 42.5015 73.6432 42.5015C76.0615 42.5015 76.8172 41.4435 77.8752 41.4435C78.4797 41.4435 78.9331 41.8969 78.9331 42.5015C78.9331 43.8617 76.5149 44.9197 73.7944 44.9197C68.9579 44.9197 65.9351 41.4435 65.9351 37.0604C65.9351 32.6774 69.1091 29.2012 73.9455 29.2012C76.5149 29.3523 78.9331 30.5614 78.9331 31.9217Z" fill="#302E40"></path><path d="M89.8188 29.3496C94.0507 29.3496 97.3758 32.8258 97.3758 37.2089C97.3758 41.5919 94.0507 45.0681 89.8188 45.0681C85.5869 45.0681 82.2618 41.5919 82.2618 37.2089C82.1106 32.8258 85.4357 29.3496 89.8188 29.3496ZM89.8188 31.919C86.9471 31.919 84.9823 34.1861 84.9823 37.2089C84.9823 40.0805 87.0983 42.4988 89.8188 42.4988C92.6904 42.4988 94.6552 40.0805 94.6552 37.2089C94.6552 34.3372 92.6904 31.919 89.8188 31.919Z" fill="#302E40"></path><path d="M115.661 24.6657V43.407C115.661 44.1627 115.056 44.7673 114.3 44.7673C113.545 44.7673 112.94 44.1627 112.94 43.407V42.349C111.731 44.0116 109.917 45.0695 107.65 45.0695C103.569 45.0695 100.396 41.7445 100.396 37.2103C100.396 32.8272 103.418 29.351 107.65 29.351C109.917 29.351 111.731 30.409 112.94 31.9204V24.5146C112.94 23.7589 113.545 23.1543 114.3 23.1543C115.056 23.1543 115.661 23.7589 115.661 24.6657ZM112.789 37.2103C112.789 34.3386 110.824 31.9204 107.953 31.9204C105.081 31.9204 103.116 34.1875 103.116 37.2103C103.116 40.0819 105.232 42.5002 107.953 42.5002C110.824 42.5002 112.789 40.0819 112.789 37.2103Z" fill="#302E40"></path><path d="M123.972 25.4223C123.972 26.3291 123.216 27.0848 122.31 27.0848C121.403 27.0848 120.647 26.3291 120.647 25.4223C120.647 24.5155 121.403 23.7598 122.31 23.7598C123.216 23.7598 123.972 24.5155 123.972 25.4223ZM122.31 44.7682C121.403 44.7682 120.949 44.1636 120.949 43.4079V31.1656C120.949 30.4099 121.554 29.8054 122.31 29.8054C123.065 29.8054 123.67 30.4099 123.67 31.1656V43.4079C123.67 44.1636 123.065 44.7682 122.31 44.7682Z" fill="#302E40"></path><path d="M18.4749 38.1155H5.32576C4.7212 38.1155 4.11664 37.5109 4.11664 36.9064C4.11664 36.3018 4.7212 35.6973 5.32576 35.6973H18.4749C19.0795 35.6973 19.684 36.3018 19.684 36.9064C19.684 37.5109 19.0795 38.1155 18.4749 38.1155Z" fill="#FF0B7A"></path><path d="M37.0532 19.5252C36.4487 19.5252 35.8441 18.9206 35.8441 18.316V5.01576C35.8441 4.4112 36.4487 3.80664 37.0532 3.80664C37.6578 3.80664 38.2623 4.4112 38.2623 5.01576V18.4672C38.1112 19.0717 37.6578 19.5252 37.0532 19.5252Z" fill="#394CFF"></path><path d="M37.0532 66.6837C36.4487 66.6837 35.8441 66.0792 35.8441 65.4746V55.6505C35.8441 55.046 36.4487 54.4414 37.0532 54.4414C37.6578 54.4414 38.2623 55.046 38.2623 55.6505V65.4746C38.1112 66.0792 37.6578 66.6837 37.0532 66.6837Z" fill="#394CFF"></path><path d="M15.7518 59.4247C15.4496 59.4247 15.1473 59.2735 14.845 59.1224C14.3916 58.669 14.3916 57.9133 14.845 57.4598L22.8554 49.4494C23.3088 48.996 24.0645 48.996 24.5179 49.4494C24.9714 49.9029 24.9714 50.6586 24.5179 51.112L16.6587 58.9712C16.3564 59.2735 16.0541 59.4247 15.7518 59.4247Z" fill="#FF0B7A"></path><path d="M50.2084 24.9669C49.9061 24.9669 49.6038 24.8157 49.3016 24.6646C48.8481 24.2112 48.8481 23.4555 49.3016 23.0021L57.1608 15.1428C57.6142 14.6894 58.3699 14.6894 58.8234 15.1428C59.2768 15.5962 59.2768 16.3519 58.8234 16.8053L50.9641 24.6646C50.813 24.9669 50.5107 24.9669 50.2084 24.9669Z" fill="#FF0B7A"></path><path d="M57.6142 58.8228C57.312 58.8228 57.0097 58.6717 56.7074 58.5205L49.1504 50.9635C48.697 50.5101 48.697 49.7544 49.1504 49.301C49.6038 48.8476 50.3595 48.8476 50.813 49.301L58.3699 56.858C58.8234 57.3114 58.8234 58.0671 58.3699 58.5205C58.2188 58.8228 57.9165 58.8228 57.6142 58.8228Z" fill="#FF0B7A"></path><path d="M16.6513 17.863C16.349 17.863 16.0467 17.7118 15.7445 17.5607L13.6285 15.4448C13.1751 14.9913 13.1751 14.2356 13.6285 13.6311C14.0819 13.1777 14.8376 13.1777 15.2911 13.6311L17.407 15.747C17.8604 16.2005 17.8604 16.9562 17.407 17.4096C17.2559 17.7118 16.9536 17.863 16.6513 17.863Z" fill="#FF0B7A"></path><path d="M23.9094 24.9669C23.6071 24.9669 23.3048 24.8158 23.0025 24.6646L19.0729 20.735C18.6195 20.2816 18.6195 19.5259 19.0729 19.0725C19.5263 18.6191 20.282 18.6191 20.7354 19.0725L24.6651 23.0021C25.1185 23.4555 25.1185 24.2112 24.6651 24.6646C24.5139 24.9669 24.2117 24.9669 23.9094 24.9669Z" fill="#FFB000"></path><path d="M7.28484 50.5088C6.83142 50.5088 6.378 50.2065 6.22686 49.7531C5.92458 49.1485 6.22686 48.3928 6.83142 48.2417L19.376 43.103C19.9806 42.8007 20.7363 43.103 20.8874 43.7075C21.1897 44.3121 20.8874 45.0678 20.2828 45.2189L7.73826 50.3577C7.58712 50.5088 7.43598 50.5088 7.28484 50.5088Z" fill="#FF0B7A"></path><path d="M29.8097 21.0366C29.3562 21.0366 28.9028 20.7343 28.7517 20.2809L26.7869 15.4444C26.4846 14.8399 26.7869 14.0842 27.3914 13.933C27.996 13.6308 28.7517 13.933 28.9028 14.5376L30.8676 19.3741C31.1699 19.9786 30.8676 20.7343 30.2631 20.8855C30.1119 21.0366 29.9608 21.0366 29.8097 21.0366Z" fill="#FF0B7A"></path><path d="M26.1782 11.9674C25.7248 11.9674 25.2714 11.6651 25.1202 11.2117L23.6088 7.73545C23.3065 7.13089 23.6088 6.37519 24.2134 6.22405C24.8179 5.92178 25.5736 6.22405 25.7248 6.82861L27.2362 10.3048C27.5384 10.9094 27.2362 11.6651 26.6316 11.8162C26.4805 11.9674 26.3293 11.9674 26.1782 11.9674Z" fill="#FFB000"></path><path d="M48.0937 64.8704C47.6403 64.8704 47.1868 64.5681 47.0357 64.1147L43.1061 54.5929C42.8038 53.9883 43.1061 53.2326 43.7106 53.0815C44.3152 52.7792 45.0709 53.0815 45.222 53.686L49.1517 63.2078C49.4539 63.8124 49.1517 64.5681 48.5471 64.7192C48.396 64.8704 48.2448 64.8704 48.0937 64.8704Z" fill="#394CFF"></path><path d="M44.1641 21.0374C44.0129 21.0374 43.8618 21.0374 43.7106 20.8863C43.1061 20.584 42.8038 19.9794 43.1061 19.3749L48.0937 7.28369C48.396 6.67913 49.0005 6.37685 49.6051 6.67913C50.2096 6.98141 50.5119 7.58597 50.2096 8.19053L45.222 20.2817C45.0709 20.7351 44.6175 21.0374 44.1641 21.0374Z" fill="#FF0B7A"></path><path d="M26.3223 63.8085C26.1711 63.8085 26.02 63.8085 25.8688 63.6573C25.2643 63.3551 24.962 62.7505 25.2643 62.1459L28.7405 53.6821C29.0428 53.0776 29.6473 52.7753 30.2519 53.0776C30.8564 53.3798 31.1587 53.9844 30.8564 54.589L27.3802 63.0528C27.2291 63.5062 26.7757 63.8085 26.3223 63.8085Z" fill="#FFB000"></path><path d="M19.8346 31.0127C19.6834 31.0127 19.5323 31.0127 19.3812 30.8616L7.13885 25.7228C6.5343 25.4205 6.23202 24.816 6.5343 24.2114C6.83658 23.6069 7.44113 23.3046 8.04569 23.6069L20.288 28.7456C20.8926 29.0479 21.1948 29.6525 20.8926 30.257C20.7414 30.7104 20.288 31.0127 19.8346 31.0127Z" fill="#FF0B7A"></path><path d="M9.71821 43.5573C9.11365 43.5573 8.66023 43.1039 8.50909 42.6505C8.35795 42.0459 8.81137 41.4414 9.41593 41.2902L18.4843 39.4766C19.0889 39.3254 19.6934 39.7788 19.8446 40.3834C19.9957 40.988 19.5423 41.5925 18.9377 41.7437L9.86935 43.5573H9.71821Z" fill="#394CFF"></path><path d="M1.23841 45.2201C0.633851 45.2201 0.180433 44.7666 0.0292931 44.3132C-0.121847 43.7087 0.331572 43.1041 0.936131 42.953L5.0169 42.1973C5.62146 42.0461 6.22602 42.4995 6.37716 43.1041C6.5283 43.7087 6.07488 44.3132 5.47032 44.4644L1.38955 45.2201H1.23841Z" fill="#FFB000"></path><path d="M41.4527 60.7888C40.8481 60.7888 40.3947 60.3354 40.2436 59.882L39.3367 55.4989C39.1856 54.8944 39.639 54.2898 40.2436 54.1387C40.8481 53.9875 41.4527 54.441 41.6038 55.0455L42.5107 59.4286C42.6618 60.0331 42.2084 60.6377 41.6038 60.7888C41.6038 60.7888 41.6038 60.7888 41.4527 60.7888Z" fill="#FF0B7A"></path><path d="M43.5734 71.2161C42.9688 71.2161 42.5154 70.7626 42.3643 70.3092L41.004 63.6591C40.8529 63.0545 41.3063 62.45 41.9109 62.2988C42.5154 62.1477 43.12 62.6011 43.2711 63.2057L44.6314 69.8558C44.7825 70.4604 44.3291 71.0649 43.7245 71.2161C43.7245 71.2161 43.7245 71.2161 43.5734 71.2161Z" fill="#FFB000"></path><path d="M33.4265 19.9811C32.8219 19.9811 32.3685 19.5277 32.2174 19.0743L31.4617 15.2958C31.3105 14.6912 31.7639 14.0867 32.3685 13.9355C32.9731 13.7844 33.5776 14.2378 33.7288 14.8424L34.4845 18.6209C34.6356 19.2254 34.1822 19.83 33.5776 19.9811H33.4265Z" fill="#FFB000"></path><path d="M31.7806 11.9693C31.176 11.9693 30.7226 11.5159 30.5715 11.0625L28.7578 1.38955C28.6067 0.784991 29.0601 0.180433 29.6646 0.0292931C30.2692 -0.121847 30.8738 0.331572 31.0249 0.936131L32.9897 10.6091C33.1409 11.2136 32.6874 11.8182 32.0829 11.9693C31.9317 11.9693 31.9317 11.9693 31.7806 11.9693Z" fill="#FF0B7A"></path><path d="M47.344 22.7016C47.1929 22.7016 46.8906 22.7016 46.7394 22.5505C46.1349 22.2482 45.9837 21.4925 46.4372 20.888L49.6111 16.2026C49.9134 15.5981 50.6691 15.4469 51.2736 15.9004C51.8782 16.2026 52.0293 16.9583 51.5759 17.5629L48.402 22.2482C48.0997 22.5505 47.6463 22.7016 47.344 22.7016Z" fill="#FFB000"></path><path d="M52.9281 14.3869C52.777 14.3869 52.4747 14.3869 52.3235 14.2358C51.719 13.9335 51.5679 13.1778 52.0213 12.5732L55.9509 6.67878C56.2532 6.07422 57.0089 5.92308 57.4623 6.22536C58.0669 6.52764 58.218 7.28334 57.7646 7.88789L53.8349 13.7823C53.6838 14.2358 53.2304 14.3869 52.9281 14.3869Z" fill="#394CFF"></path><path d="M18.0154 66.6804C17.8642 66.6804 17.562 66.6804 17.4108 66.5293C16.8063 66.227 16.6551 65.4713 17.1085 64.8668L20.5848 59.728C20.887 59.1235 21.6427 58.9723 22.2473 59.4257C22.8519 59.728 23.003 60.4837 22.5496 61.0883L19.0734 66.227C18.7711 66.5293 18.3177 66.6804 18.0154 66.6804Z" fill="#FFB000"></path><path d="M23.9171 57.9181C23.7659 57.9181 23.4636 57.9181 23.3125 57.767C22.7079 57.4647 22.5568 56.709 23.0102 56.1045L25.8819 51.8726C26.1842 51.268 26.9399 51.1169 27.5444 51.5703C28.149 51.8726 28.3001 52.6283 27.8467 53.2328L24.975 57.4647C24.6728 57.6159 24.2193 57.9181 23.9171 57.9181Z" fill="#394CFF"></path><path d="M21.4954 27.8373C21.3443 27.8373 21.042 27.8373 20.8908 27.6862L17.868 25.5702C17.2635 25.268 17.1123 24.5123 17.5658 23.9077C17.868 23.3032 18.6237 23.152 19.2283 23.6054L22.2511 25.7214C22.8556 26.0237 23.0068 26.7794 22.5534 27.3839C22.2511 27.6862 21.9488 27.8373 21.4954 27.8373Z" fill="#394CFF"></path><path d="M14.9966 23.4563C14.8454 23.4563 14.5431 23.4563 14.392 23.3051L5.17248 17.1084C4.56793 16.8061 4.41679 16.0504 4.87021 15.4459C5.32362 14.9925 5.92818 14.8413 6.53274 15.1436L15.7523 21.3403C16.3568 21.6426 16.508 22.3983 16.0545 23.0029C15.7523 23.3051 15.45 23.4563 14.9966 23.4563Z" fill="#FFB000"></path><path d="M9.40463 56.7068C8.95121 56.7068 8.64893 56.5556 8.34666 56.2533C8.04438 55.6488 8.19552 55.0442 8.64893 54.5908L14.5434 50.6612C15.1479 50.3589 15.7525 50.51 16.2059 50.9634C16.5082 51.568 16.3571 52.1726 15.9036 52.626L10.0092 56.5556C9.85805 56.5556 9.55577 56.7068 9.40463 56.7068Z" fill="#394CFF"></path><path d="M19.081 50.0549C18.6275 50.0549 18.3253 49.9038 18.023 49.6015C17.7207 48.9969 17.8718 48.3924 18.3253 47.9389L20.7435 46.2764C21.3481 45.9741 21.9526 46.1253 22.406 46.5787C22.7083 47.1832 22.5572 47.7878 22.1038 48.2412L19.8367 49.9038C19.5344 50.0549 19.3832 50.0549 19.081 50.0549Z" fill="#FFB000"></path><path d="M26.6307 22.698C26.1772 22.698 25.875 22.5469 25.5727 22.2446L16.0509 8.0375C15.7486 7.43294 15.8997 6.82838 16.3532 6.37497C16.9577 5.92155 17.7134 6.07269 18.1668 6.67725L27.6886 20.8844C27.9909 21.4889 27.8398 22.0935 27.3864 22.5469C27.0841 22.698 26.9329 22.698 26.6307 22.698Z" fill="#394CFF"></path><path d="M55.1915 65.4728C54.7381 65.4728 54.4358 65.3217 54.1336 65.0194L50.3551 59.4272C50.0528 58.8227 50.2039 58.2181 50.6574 57.7647C51.2619 57.4624 51.8665 57.6135 52.3199 58.067L56.0984 63.6591C56.4007 64.2637 56.2495 64.8682 55.7961 65.3217C55.645 65.4728 55.4938 65.4728 55.1915 65.4728Z" fill="#394CFF"></path><path d="M49.004 56.2528C48.5506 56.2528 48.2483 56.1016 47.946 55.7993L46.2835 53.23C45.9812 52.6254 46.1323 52.0208 46.5858 51.5674C47.1903 51.2651 47.7949 51.4163 48.2483 51.8697L49.9108 54.4391C50.2131 55.0436 50.062 55.6482 49.6086 56.1016C49.4574 56.1016 49.3063 56.2528 49.004 56.2528Z" fill="#FFB000"></path><path d="M30.8695 68.6481C30.7184 68.6481 30.7184 68.6481 30.5672 68.6481C29.9627 68.4969 29.5093 67.8924 29.6604 67.2878L32.0786 55.0455C32.2298 54.441 32.8343 53.9875 33.4389 54.1387C34.0434 54.2898 34.4969 54.8944 34.3457 55.4989L31.9275 67.7412C31.9275 68.1947 31.4741 68.6481 30.8695 68.6481Z" fill="#FF0B7A"></path><path d="M40.698 19.9795C40.5469 19.9795 40.5469 19.9795 40.3957 19.9795C39.7912 19.8283 39.3377 19.2238 39.4889 18.6192L42.5117 3.3541C42.6628 2.74954 43.2674 2.29612 43.8719 2.44726C44.4765 2.5984 44.9299 3.20296 44.7788 3.80752L41.756 19.0726C41.6048 19.526 41.1514 19.9795 40.698 19.9795Z" fill="#FFB000"></path><path d="M18.7672 34.4879C18.6161 34.4879 18.6161 34.4879 18.465 34.4879L12.1171 33.2788C11.5125 33.1277 11.0591 32.5231 11.2103 31.9186C11.3614 31.314 11.966 30.8606 12.5705 31.0117L19.0695 32.2208C19.6741 32.372 20.1275 32.9765 19.9764 33.5811C19.8252 34.1856 19.3718 34.4879 18.7672 34.4879Z" fill="#FFB000"></path><path d="M8.04372 32.3727C7.89258 32.3727 7.89257 32.3727 7.74144 32.3727L1.54471 31.1636C0.940154 31.0124 0.486735 30.4079 0.637875 29.8033C0.789014 29.1988 1.39357 28.7453 1.99813 28.8965L8.19485 30.1056C8.79941 30.2567 9.25283 30.8613 9.10169 31.4659C9.10169 32.0704 8.64827 32.3727 8.04372 32.3727Z" fill="#394CFF"></path></svg> 